<svg width="64" height="64" viewBox="0 0 64 64" fill="none" xmlns="http://www.w3.org/2000/svg">
  <!-- Background circle -->
  <circle cx="32" cy="32" r="32" fill="#6366f1"/>
  
  <!-- Letter C -->
  <path d="M 42 20 Q 46 20 48 22 Q 50 24 50 28 L 44 28 Q 44 26 43 25 Q 42 24 40 24 L 28 24 Q 26 24 25 25 Q 24 26 24 28 L 24 36 Q 24 38 25 39 Q 26 40 28 40 L 40 40 Q 42 40 43 39 Q 44 38 44 36 L 50 36 Q 50 40 48 42 Q 46 44 42 44 L 28 44 Q 24 44 22 42 Q 20 40 20 36 L 20 28 Q 20 24 22 22 Q 24 20 28 20 Z" fill="white"/>
  
  <!-- Small decorative dots -->
  <circle cx="16" cy="48" r="2" fill="white" opacity="0.6"/>
  <circle cx="48" cy="16" r="2" fill="white" opacity="0.6"/>
</svg>
